<svg xmlns="http://www.w3.org/2000/svg" viewBox="0 0 26.458 26.458"><g color="#000" font-weight="400" font-family="sans-serif" fill-rule="evenodd" stroke-width=".456" stroke-linecap="round" stroke-linejoin="round"><path style="line-height:normal;font-variant-ligatures:normal;font-variant-position:normal;font-variant-caps:normal;font-variant-numeric:normal;font-variant-alternates:normal;font-feature-settings:normal;text-indent:0;text-align:start;text-decoration-line:none;text-decoration-style:solid;text-decoration-color:#000;text-transform:none;text-orientation:mixed;white-space:normal;shape-padding:0;isolation:auto;mix-blend-mode:normal;solid-color:#000;solid-opacity:1" d="M5.393 5.43a3.297 3.297 0 0 0-3.3 3.298v9.002a3.298 3.298 0 0 0 3.3 3.299h15.672c1.824 0 3.3-1.476 3.3-3.3v-9c0-1.824-1.476-3.3-3.3-3.3zm0 .499h15.672a2.787 2.787 0 0 1 2.798 2.8v9c0 1.556-1.243 2.8-2.798 2.8H5.393a2.787 2.787 0 0 1-2.798-2.8v-9c0-1.556 1.243-2.8 2.798-2.8z" overflow="visible"/><path style="line-height:normal;font-variant-ligatures:normal;font-variant-position:normal;font-variant-caps:normal;font-variant-numeric:normal;font-variant-alternates:normal;font-feature-settings:normal;text-indent:0;text-align:start;text-decoration-line:none;text-decoration-style:solid;text-decoration-color:#000;text-transform:none;text-orientation:mixed;white-space:normal;shape-padding:0;isolation:auto;mix-blend-mode:normal;solid-color:#000;solid-opacity:1" d="M10.643 15.622a.25.25 0 0 0-.23.189 1.588 1.588 0 0 0 1.12 1.94 1.586 1.586 0 0 0 1.937-1.119.25.25 0 1 0-.482-.13 1.08 1.08 0 0 1-1.327.764 1.077 1.077 0 0 1-.765-1.324.25.25 0 0 0-.253-.32z" overflow="visible"/><path style="line-height:normal;font-variant-ligatures:normal;font-variant-position:normal;font-variant-caps:normal;font-variant-numeric:normal;font-variant-alternates:normal;font-feature-settings:normal;text-indent:0;text-align:start;text-decoration-line:none;text-decoration-style:solid;text-decoration-color:#000;text-transform:none;text-orientation:mixed;white-space:normal;shape-padding:0;isolation:auto;mix-blend-mode:normal;solid-color:#000;solid-opacity:1" d="M15.817 15.622a.25.25 0 0 1 .23.189 1.59 1.59 0 0 1-1.121 1.94 1.586 1.586 0 0 1-1.938-1.119.25.25 0 1 1 .482-.13c.156.58.746.92 1.327.764.58-.155.921-.744.765-1.324a.25.25 0 0 1 .255-.32zm-8.872-5.79A3.047 3.047 0 0 0 3.9 12.876a3.047 3.047 0 0 0 3.044 3.044 3.05 3.05 0 0 0 3.046-3.044 3.05 3.05 0 0 0-3.046-3.044zm0 .5a2.54 2.54 0 0 1 2.544 2.544 2.54 2.54 0 0 1-2.544 2.545A2.54 2.54 0 0 1 4.4 12.876a2.54 2.54 0 0 1 2.545-2.544zm12.568-.5a3.047 3.047 0 0 0-3.044 3.044 3.047 3.047 0 0 0 3.044 3.044 3.047 3.047 0 0 0 3.044-3.044 3.047 3.047 0 0 0-3.044-3.044zm0 .5a2.54 2.54 0 0 1 2.545 2.544 2.54 2.54 0 0 1-2.545 2.545 2.54 2.54 0 0 1-2.544-2.545 2.54 2.54 0 0 1 2.544-2.544z" overflow="visible"/></g></svg>